# AST/ASF file generated using VICON BodyLanguage
# -----------------------------------------------
:version 1.10
:name VICON
:units
  mass 1.0
  length 0.45
  angle deg
:documentation
   .ast/.asf automatically generated from VICON data using
   VICON BodyBuilder and BodyLanguage model FoxedUp or BRILLIANT.MOD
:root
   order TX TY TZ RX RY RZ
   axis XYZ
   position 0 0 0  
   orientation 0 0 0 
:bonedata
  begin
     id 1 
     name lhipjoint
     direction 0.612567 -0.751349 0.245431 
     length 2.42285 
     axis 0 0 0  XYZ
  end
  begin
     id 2 
     name lfemur
     direction 0.34202 -0.939693 0  
     length 7.11304  
     axis 0 0 20  XYZ
    dof rx ry rz
    limits (-160.0 20.0)
           (-70.0 70.0)
           (-60.0 70.0)
  end
  begin
     id 3 
     name ltibia
     direction 0.34202 -0.939693 0   
     length 7.84529   
     axis 0 0 20   XYZ
    dof rx
    limits (-10.0 170.0)
  end
  begin
     id 4 
     name lfoot
     direction 0.0779239 -0.214094 0.9737   
     length 1.97176   
     axis -90 7.62852e-016 20   XYZ
    dof rx rz
    limits (-45.0 90.0)
           (-70.0 20.0)
  end
  begin
     id 5 
     name ltoes
     direction 1.53565e-011 -4.21709e-011 1   
     length 0.993197   
     axis -90 7.62852e-016 20   XYZ
    dof rx
    limits (-90.0 20.0)
  end
  begin
     id 6 
     name rhipjoint
     direction -0.665722 -0.709315 0.231701   
     length 2.56642  
     axis 0 0 0  XYZ 
  end
  begin
     id 7 
     name rfemur
     direction -0.34202 -0.939693 0   
     length 7.32108   
     axis 0 0 -20   XYZ
    dof rx ry rz
    limits (-160.0 20.0)
           (-70.0 70.0)
           (-70.0 60.0)
  end
  begin
     id 8 
     name rtibia
     direction -0.34202 -0.939693 0   
     length 7.81254   
     axis 0 0 -20   XYZ
    dof rx
    limits (-10.0 170.0)
 end
 begin
     id 9 
     name rfoot
     direction -0.0832806 -0.228812 0.969902   
     length 2.08278  
     axis -90 -7.62852e-016 -20   XYZ
    dof rx rz
    limits (-45.0 90.0)
           (-20.0 70.0)
  end
  begin
     id 10 
     name rtoes
     direction -1.53589e-011 -4.22086e-011 1   
     length 1.04609   
     axis -90 -7.62852e-016 -20   XYZ
    dof rx
    limits (-90.0 20.0)
  end
  begin
     id 11 
     name lowerback
     direction -0.00506013 0.988403 -0.151766   
     length 2.01978   
     axis 0 0 0   XYZ
    dof rx ry rz
    limits (-20.0 45.0)
           (-30.0 30.0)
           (-30.0 30.0)
  end
  begin
     id 12 
     name upperback
     direction -0.00836389 0.99968 0.0238859   
     length 2.01276   
     axis 0 0 0   XYZ
    dof rx ry rz
    limits (-20.0 45.0)
           (-30.0 30.0)
           (-30.0 30.0)
  end
  begin
     id 13 
     name thorax
     direction -0.00684136 0.995386 0.0957043   
     length 2.07303   
     axis 0 0 0   XYZ
    dof rx ry rz
    limits (-20.0 45.0)
           (-30.0 30.0)
           (-30.0 30.0)
  end
  begin
     id 14 
     name lowerneck
     direction -0.0161045 0.999661 0.0204485   
     length 1.91243   
     axis 0 0 0   XYZ
    dof rx ry rz
    limits (-20.0 45.0)
           (-30.0 30.0)
           (-30.0 30.0)
  end
  begin
     id 15 
     name upperneck
     direction 0.0553583 0.990946 -0.122319   
     length 1.91574   
     axis 0 0 0   XYZ
    dof rx ry rz
    limits (-20.0 45.0)
           (-30.0 30.0)
           (-30.0 30.0)
  end
  begin
     id 16
     name head
     direction 0.0180273 0.998839 -0.0446756  
     length 1.92693  
     axis 0 0 0   XYZ
    dof rx ry rz
    limits (-20.0 45.0)
           (-30.0 30.0)
           (-30.0 30.0)
  end
  begin
     id 17 
     name lclavicle
     direction 0.945646 0.319323 -0.0615358  
     length 4.0076  
     axis 0 0 0   XYZ
    dof ry rz
    limits (-20.0 10.0)
           (0.0 20.0)
  end
  begin
     id 18 
     name lhumerus
     direction 1 -4.48967e-011 -2.79996e-027   
     length 5.64147   
     axis 180 -30 -90   XYZ
    dof rx ry rz
    limits (-60.0 90.0)
           (-90.0 90.0)
           (-90.0 90.0)
  end
  begin
     id 19
     name lradius
     direction 1 -4.48976e-011 -9.5122e-027   
     length 2.86444   
     axis 180 -30 -90   XYZ
    dof rx
    limits (-10.0 170.0)
  end
  begin
     id 20
     name lwrist
     direction 1 -4.48983e-011 -1.24047e-026   
     length 1.43222   
     axis 9.05591e-015 90 90   XYZ
    dof ry
    limits (-180.0 0.0)
 end
  begin
     id 21 
     name lhand
     direction 1 -4.4892e-011 -2.48094e-026   
     length 0.722123   
     axis 1.58305e-014 90 90   XYZ
    dof rx rz
    limits (-90.0 90.0)
           (-45.0 45.0)
  end
  begin
     id 22 
     name lfingers
     direction 1 -4.48895e-011 -4.96187e-026   
     length 0.582194   
     axis 3.1661e-014 90 90   XYZ
    dof rx
    limits (0.0 90.0)
  end
  begin
     id 23
     name lthumb
     direction 0.707107 -6.34961e-011 0.707107   
     length 0.835918   
     axis -90 45 2.85299e-015   XYZ
    dof rx rz
    limits (-45.0 45.0)
           (-45.0 45.0)
  end
  begin
     id 24 
     name rclavicle
     direction -0.932635 0.324218 -0.15835   
     length 3.65819  
     axis 0 0 0   XYZ 
    dof ry rz
    limits (-10.0 20.0)
           (-20.0 0.0)
  end
  begin
     id 25 
     name rhumerus
     direction -1 -4.48965e-011 -4.02296e-027  
     length 5.44729   
     axis 180 30 90   XYZ
    dof rx ry rz
    limits (-90.0 60.0)
           (-90.0 90.0)
           (-90.0 90.0)
  end
  begin
     id 26 
     name rradius
     direction -1 -4.48957e-011 -8.81087e-027   
     length 3.08821   
     axis 180 30 90   XYZ
    dof rx
    limits (-10.0 170.0)
  end
  begin
     id 27 
     name rwrist
     direction -1 -4.49015e-011 -1.24047e-026   
     length 1.5441   
     axis 9.05591e-015 -90 -90   XYZ
    dof ry
    limits (-180.0 0.0)
  end
  begin
     id 28
     name rhand
     direction -1 -4.4891e-011 -2.48094e-026   
     length 0.821049   
     axis 1.58305e-014 -90 -90   XYZ
    dof rx rz
    limits (-90.0 90.0)
           (-45.0 45.0)
  end
  begin
     id 29
     name rfingers
     direction -1 -4.48985e-011 -4.96187e-026   
     length 0.661951   
     axis 3.1661e-014 -90 -90   XYZ
    dof rx
    limits (0.0 90.0)
  end
  begin
     id 30
     name rthumb
     direction -0.707107 -6.34906e-011 0.707107   
     length 0.950433   
     axis -90 -45 -2.85299e-015   XYZ
    dof rx rz
    limits (-45.0 45.0)
           (-45.0 45.0)
  end
:hierarchy
  begin
    root lhipjoint rhipjoint lowerback
    lhipjoint lfemur
    lfemur ltibia
    ltibia lfoot
    lfoot ltoes
    rhipjoint rfemur
    rfemur rtibia
    rtibia rfoot
    rfoot rtoes
    lowerback upperback
    upperback thorax
    thorax lowerneck lclavicle rclavicle
    lowerneck upperneck
    upperneck head
    lclavicle lhumerus
    lhumerus lradius
    lradius lwrist
    lwrist lhand lthumb
    lhand lfingers
    rclavicle rhumerus
    rhumerus rradius
    rradius rwrist
    rwrist rhand rthumb
    rhand rfingers
  end

#!OML:ASF F:\VICON\USERDATA\INSTALL\rory3\rory3.ASF
:FULLY-SPECIFIED
:DEGREES
1568
root 3.29848 17.6308 0.298343 -132.326 82.9711 -130.23
lowerback 6.7413 -0.314468 -11.531
upperback -0.215685 -1.24439 -7.81946
thorax -3.94712 -0.293221 -1.65439
lowerneck -4.54788 -4.708 -6.80548
upperneck 5.50969 -5.92349 1.95255
head 2.86121 -3.02667 1.57951
rclavicle 1.8723e-014 1.20861e-013
rhumerus -70.6489 29.2378 -96.7223
rradius 82.9909
rwrist -49.7437
rhand 22.1372 7.75304
rfingers 7.12502
rthumb 46.5206 -15.1215
lclavicle 1.8723e-014 1.20861e-013
lhumerus -12.15 34.8959 19.8016
lradius 95.5025
lwrist 11.7746
lhand -5.23867 36.0127
lfingers 7.12502
lthumb 20.5641 64.9435
rfemur 7.04507 2.91707 25.6055
rtibia 5.96299
rfoot -17.8997 -15.0319
rtoes -7.3943
lfemur -3.51263 -2.24345 -9.78945
ltibia 18.8285
lfoot -13.3871 -4.69679
ltoes -0.968821
1569
root 3.29427 17.6295 0.29189 -130.697 82.8905 -128.62
lowerback 6.75982 -0.275771 -11.3573
upperback -0.242572 -1.19106 -7.78901
thorax -3.99218 -0.270456 -1.72155
lowerneck -4.51334 -4.70542 -6.84934
upperneck 5.53278 -5.92321 2.00747
head 2.86683 -3.02638 1.60596
rclavicle -2.36678e-015 -1.59028e-014
rhumerus -70.7502 29.1806 -96.7822
rradius 83.0162
rwrist -49.6553
rhand 21.9832 7.66413
rfingers 7.12502
rthumb 46.3779 -15.2714
lclavicle -2.36678e-015 -1.59028e-014
lhumerus -12.1545 34.7787 19.9136
lradius 95.4477
lwrist 11.7093
lhand -5.28039 36.0973
lfingers 7.12502
lthumb 20.524 65.0325
rfemur 7.0411 3.01438 25.8036
rtibia 5.87139
rfoot -17.846 -15.0911
rtoes -7.53223
lfemur -3.5479 -2.14467 -9.59846
ltibia 18.8734
lfoot -13.3977 -4.74462
ltoes -0.927506
1570
root 3.29121 17.6308 0.289008 -129.668 82.9306 -127.683
lowerback 6.66547 -0.253574 -11.3828
upperback -0.263104 -1.15042 -7.77889
thorax -3.96202 -0.25097 -1.70105
lowerneck -4.54275 -4.69314 -6.77772
upperneck 5.57634 -5.90439 1.93156
head 2.87991 -3.01816 1.56824
rclavicle 6.70898e-015 2.54444e-014
rhumerus -70.843 29.2064 -96.8597
rradius 83.0969
rwrist -49.7572
rhand 22.1877 7.0405
rfingers 7.12502
rthumb 46.5674 -15.814
lclavicle 6.70898e-015 2.54444e-014
lhumerus -12.1167 34.8421 20.0386
lradius 95.3372
lwrist 11.5639
lhand -5.09393 36.1953
lfingers 7.12502
lthumb 20.7032 65.111
rfemur 6.98503 3.13762 25.8613
rtibia 5.76729
rfoot -17.7614 -15.1728
rtoes -7.92641
lfemur -3.6488 -2.01358 -9.5433
ltibia 18.8997
lfoot -13.399 -4.74987
ltoes -0.919974
1571
root 3.28983 17.6335 0.287578 -129.386 83.0506 -127.433
lowerback 6.58288 -0.246542 -11.5636
upperback -0.244563 -1.13493 -7.78685
thorax -3.89292 -0.24137 -1.61276
lowerneck -4.51097 -4.68745 -6.64991
upperneck 5.53196 -5.90116 1.82801
head 2.84877 -3.01638 1.5126
rclavicle 6.08778e-015 2.54444e-014
rhumerus -70.8563 29.2489 -96.894
rradius 83.1284
rwrist -49.8088
rhand 21.8849 7.62504
rfingers 7.12502
rthumb 46.2867 -15.3491
lclavicle 6.08778e-015 2.54444e-014
lhumerus -12.1969 34.8264 19.9981
lradius 95.26
lwrist 11.5419
lhand -4.91872 36.0244
lfingers 7.12502
lthumb 20.8715 64.9217
rfemur 7.02847 3.23987 25.8045
rtibia 5.66702
rfoot -17.7431 -15.2127
rtoes -7.86585
lfemur -3.66771 -1.90986 -9.62537
ltibia 18.9079
lfoot -13.445 -4.71865
ltoes -1.17754
1572
root 3.28701 17.6349 0.282421 -128.96 83.1193 -126.944
lowerback 6.63386 -0.221458 -11.6389
upperback -0.216639 -1.11249 -7.76551
thorax -3.8916 -0.22946 -1.55125
lowerneck -4.51352 -4.68875 -6.6242
upperneck 5.54115 -5.90299 1.80568
head 2.85041 -3.01751 1.5005
rclavicle 5.96354e-015 -5.08889e-014
rhumerus -70.8949 29.2505 -96.8619
rradius 83.1745
rwrist -49.7463
rhand 21.5508 8.11432
rfingers 7.12502
rthumb 45.977 -14.9898
lclavicle 5.96354e-015 -5.08889e-014
lhumerus -12.3374 34.7622 19.9325
lradius 95.2632
lwrist 11.5754
lhand -4.64489 35.8539
lfingers 7.12502
lthumb 21.1346 64.722
rfemur 7.09721 3.32259 25.7854
rtibia 5.67222
rfoot -17.6775 -15.3015
rtoes -8.2525
lfemur -3.56369 -1.83496 -9.66685
ltibia 18.8798
lfoot -13.4773 -4.70375
ltoes -1.39253
1573
root 3.28137 17.6353 0.273731 -128.705 83.1566 -126.645
lowerback 6.71157 -0.203247 -11.6128
upperback -0.207139 -1.09997 -7.75258
thorax -3.92659 -0.223179 -1.55291
lowerneck -4.40535 -4.69416 -6.66165
upperneck 5.47974 -5.91726 1.83603
head 2.81283 -3.02411 1.51903
rclavicle 9.56651e-015 6.04305e-014
rhumerus -70.8825 29.1968 -96.8088
rradius 83.1515
rwrist -49.6795
rhand 21.6301 8.29343
rfingers 7.12502
rthumb 46.0505 -14.7801
lclavicle 9.56651e-015 6.04305e-014
lhumerus -12.4003 34.6824 19.9352
lradius 95.2595
lwrist 11.7192
lhand -4.74609 35.9331
lfingers 7.12502
lthumb 21.0374 64.812
rfemur 7.11017 3.37034 25.7467
rtibia 5.68722
rfoot -17.6941 -15.3165
rtoes -8.45699
lfemur -3.5154 -1.79451 -9.70514
ltibia 18.867
lfoot -13.4309 -4.70488
ltoes -1.15968
1574
root 3.27481 17.6357 0.261451 -128.442 83.1633 -126.389
lowerback 6.73722 -0.209891 -11.4864
upperback -0.190154 -1.1034 -7.74982
thorax -3.92509 -0.228787 -1.61766
lowerneck -4.36468 -4.69322 -6.70174
upperneck 5.42237 -5.92027 1.89496
head 2.79011 -3.02416 1.54658
rclavicle -1.39646e-014 -6.99722e-014
rhumerus -70.8162 29.1597 -96.7561
rradius 83.153
rwrist -49.6737
rhand 21.8153 7.86138
rfingers 7.12502
rthumb 46.2222 -15.1401
lclavicle -1.39646e-014 -6.99722e-014
lhumerus -12.4053 34.6616 19.9915
lradius 95.2342
lwrist 11.7955
lhand -4.97681 36.0307
lfingers 7.12502
lthumb 20.8157 64.9341
rfemur 7.06159 3.40053 25.7077
rtibia 5.70331
rfoot -17.772 -15.2599
rtoes -8.02869
lfemur -3.55073 -1.76952 -9.74078
ltibia 18.8857
lfoot -13.396 -4.72054
ltoes -0.857926
1575
root 3.26593 17.6358 0.248837 -127.964 83.2062 -125.928
lowerback 6.76761 -0.217687 -11.3846
upperback -0.18099 -1.11179 -7.75197
thorax -3.93405 -0.235602 -1.67405
lowerneck -4.31908 -4.6634 -6.62624
upperneck 5.30341 -5.88877 1.88698
head 2.7362 -3.00579 1.53381
rclavicle 1.09332e-015 -5.725e-014
rhumerus -70.7542 29.1809 -96.7416
rradius 83.2035
rwrist -49.757
rhand 22.2725 6.83221
rfingers 7.12502
rthumb 46.6459 -15.9884
lclavicle 1.09332e-015 -5.725e-014
lhumerus -12.4496 34.6578 19.9824
lradius 95.2415
lwrist 11.7477
lhand -5.0474 36.0705
lfingers 7.12502
lthumb 20.7479 64.9813
rfemur 7.01622 3.47289 25.66
rtibia 5.67435
rfoot -17.7228 -15.2719
rtoes -8.18362
lfemur -3.63147 -1.70285 -9.80474
ltibia 18.9556
lfoot -13.4271 -4.69722
ltoes -0.905434
1576
root 3.25978 17.6364 0.238194 -128.12 83.2715 -126.066
lowerback 6.81205 -0.229498 -11.3652
upperback -0.157209 -1.1311 -7.74383
thorax -3.93307 -0.246285 -1.67366
lowerneck -4.29559 -4.64783 -6.59186
upperneck 5.26437 -5.8727 1.89475
head 2.71672 -2.9965 1.53177
rclavicle 2.98177e-016 -9.54166e-015
rhumerus -70.7255 29.2066 -96.7259
rradius 83.2077
rwrist -49.6973
rhand 22.6207 6.28556
rfingers 7.12502
rthumb 46.9681 -16.3947
lclavicle 2.98177e-016 -9.54166e-015
lhumerus -12.5156 34.5964 19.8952
lradius 95.2383
lwrist 11.69
lhand -4.81186 36.0746
lfingers 7.12502
lthumb 20.9742 64.9605
rfemur 7.01706 3.49944 25.5572
rtibia 5.67013
rfoot -17.6361 -15.3289
rtoes -9.38407
lfemur -3.67913 -1.68193 -9.90016
ltibia 19.0302
lfoot -13.456 -4.69892
ltoes -0.856011
1577
root 3.25415 17.6338 0.229895 -127.675 83.2572 -125.558
lowerback 6.88306 -0.232817 -11.2359
upperback -0.115418 -1.13481 -7.72282
thorax -3.93065 -0.252926 -1.72035
lowerneck -4.28298 -4.65283 -6.5277
upperneck 5.19813 -5.88572 1.90408
head 2.69027 -3.0007 1.52364
rclavicle 3.65267e-015 1.08139e-013
rhumerus -70.6726 29.1834 -96.7429
rradius 83.2039
rwrist -49.5444
rhand 22.7102 6.24657
rfingers 7.12502
rthumb 47.051 -16.3971
lclavicle 3.65267e-015 1.08139e-013
lhumerus -12.496 34.5188 19.8539
lradius 95.2151
lwrist 11.58
lhand -4.60257 35.9567
lfingers 7.12502
lthumb 21.1752 64.8202
rfemur 7.01401 3.53251 25.5799
rtibia 5.77209
rfoot -17.6907 -15.2618
rtoes -9.79366
lfemur -3.65481 -1.65514 -9.85897
ltibia 19.0747
lfoot -13.4928 -4.65394
ltoes -1.3926
1578
root 3.25067 17.6325 0.222231 -127.696 83.2854 -125.526
lowerback 6.90635 -0.251779 -11.217
upperback -0.0577657 -1.15625 -7.68165
thorax -3.88081 -0.267686 -1.6836
lowerneck -4.27962 -4.62963 -6.48162
upperneck 5.09859 -5.85631 1.87575
head 2.65154 -2.98458 1.5083
rclavicle 7.1811e-015 3.49861e-014
rhumerus -70.636 29.2314 -96.7299
rradius 83.2268
rwrist -49.4709
rhand 22.7377 6.21371
rfingers 7.12502
rthumb 47.0764 -16.4188
lclavicle 7.1811e-015 3.49861e-014
lhumerus -12.501 34.4451 19.8703
lradius 95.2465
lwrist 11.594
lhand -4.62818 36.0995
lfingers 7.12502
lthumb 21.1506 64.9658
rfemur 7.05067 3.54839 25.5325
rtibia 5.81669
rfoot -17.6956 -15.2311
rtoes -9.83059
lfemur -3.61107 -1.64611 -9.90079
ltibia 19.1147
lfoot -13.5452 -4.63202
ltoes -1.4339
1579
root 3.24722 17.6329 0.215272 -128.087 83.4074 -125.899
lowerback 6.92037 -0.245443 -11.309
upperback -0.0339014 -1.15423 -7.64251
thorax -3.86087 -0.266255 -1.59198
lowerneck -4.24404 -4.60904 -6.58813
upperneck 5.02933 -5.82833 1.94535
head 2.62764 -2.96997 1.55232
rclavicle 1.23743e-014 4.77083e-014
rhumerus -70.6089 29.215 -96.6246
rradius 83.2102
rwrist -49.403
rhand 22.7649 6.26378
rfingers 7.12502
rthumb 47.1015 -16.3576
lclavicle 1.23743e-014 4.77083e-014
lhumerus -12.4823 34.3477 19.9116
lradius 95.1862
lwrist 11.5732
lhand -4.76865 35.9992
lfingers 7.12502
lthumb 21.0157 64.8806
rfemur 7.04206 3.58804 25.3752
rtibia 5.85674
rfoot -17.6445 -15.1938
rtoes -9.83074
lfemur -3.59776 -1.61261 -10.0642
ltibia 19.1377
lfoot -13.5848 -4.61613
ltoes -1.38301
